<svg xmlns="http://www.w3.org/2000/svg" viewBox="0 0 1280 800">
  <defs>
    <linearGradient id="bg" x1="0" y1="0" x2="1" y2="1">
      <stop offset="0" stop-color="#3a0f1a"/>
      <stop offset="1" stop-color="#0f0f0f"/>
    </linearGradient>
    <linearGradient id="brand" x1="0" y1="0" x2="1" y2="1">
      <stop offset="0" stop-color="#cc0029"/>
      <stop offset="1" stop-color="#ff4d6b"/>
    </linearGradient>
    <radialGradient id="glow" cx="0.1" cy="0.1" r="0.7">
      <stop offset="0" stop-color="#ff4d6b" stop-opacity="0.3"/>
      <stop offset="1" stop-color="#ff4d6b" stop-opacity="0"/>
    </radialGradient>
    <filter id="shadow" x="-20%" y="-20%" width="140%" height="140%">
      <feDropShadow dx="0" dy="22" stdDeviation="30" flood-color="#000" flood-opacity="0.6"/>
    </filter>
  </defs>
  <rect width="1280" height="800" fill="url(#bg)"/>
  <rect width="1280" height="800" fill="url(#glow)"/>
  <text x="90" y="270" font-family="DejaVu Sans" font-size="18" font-weight="700" fill="#ff8aa0" letter-spacing="2">ТРИ ПЛАТФОРМЫ</text>
<text x="90" y="320" font-family="DejaVu Sans" font-size="44" font-weight="700" fill="#f8fafc">YouTube, Rutube и VK.</text>
<text x="90" y="470" font-family="DejaVu Sans" font-size="20" font-weight="500" fill="#cbd5e1">Один popup, три платформы. Субтитры —</text>
<text x="90" y="499" font-family="DejaVu Sans" font-size="20" font-weight="500" fill="#cbd5e1">напрямую из дорожек каждой площадки.</text>
  
  <g transform="translate(830 100)" filter="url(#shadow)">
    <rect x="0" y="0" width="360" height="600" rx="18" fill="#0f0f0f"/>
    <line x1="0" y1="56" x2="360" y2="56" stroke="#303030" stroke-width="1"/>
    <!-- brand mark -->
    <rect x="16" y="14" width="28" height="28" rx="6" fill="url(#brand)"/>
    <polygon points="26,22 26,36 38,29" fill="#ffffff"/>
    <rect x="22" y="38" width="14" height="2" rx="1" fill="#ffffff"/>
    <text x="52" y="29" font-family="DejaVu Sans" font-size="13" font-weight="700" fill="#f1f5f9">Transcript</text>
    <text x="52" y="42" font-family="DejaVu Sans" font-size="9" font-weight="500" fill="#94a3b8">YouTube · Rutube · VK</text>

    <!-- primary action -->
    <rect x="218" y="14" width="88" height="28" rx="6" fill="#ff4d6b"/>
    <text x="262" y="32" text-anchor="middle" font-family="DejaVu Sans" font-size="12" font-weight="600" fill="#ffffff">Получить</text>

    <!-- theme icon -->
    <circle cx="324" cy="28" r="5" fill="none" stroke="#b3b3b3" stroke-width="1.5"/>

    <rect x="16" y="72" width="328" height="64" rx="10" fill="#1e1e22" stroke="#303030" stroke-width="1"/>
<text x="28" y="92" font-family="DejaVu Sans" font-size="13" font-weight="600" fill="#f1f5f9">Как чёрные дыры искривляют время и</text>
<text x="28" y="108" font-family="DejaVu Sans" font-size="13" font-weight="600" fill="#f1f5f9">пространство</text>
<text x="28" y="124" font-family="DejaVu Sans" font-size="11" fill="#cbd5e1">YouTube · dQw4w9WgXcQ</text><rect x="16" y="156" width="328" height="4" rx="2" fill="#181818"/>
<rect x="16" y="156" width="200" height="4" rx="2" fill="#ff4d6b"/>
<text x="180.0" y="184" text-anchor="middle" font-family="DejaVu Sans" font-size="11" fill="#94a3b8">Загрузка субтитров…</text>
<rect x="16" y="206" width="328" height="74" rx="10" fill="#1e1e22"/>
<rect x="28" y="222" width="220" height="10" rx="5" fill="#2a2a2e"/>
<rect x="28" y="238" width="280" height="8" rx="4" fill="#2a2a2e"/>
<rect x="28" y="252" width="180" height="8" rx="4" fill="#2a2a2e"/>
<rect x="16" y="296" width="328" height="74" rx="10" fill="#1e1e22"/>
<rect x="28" y="312" width="240" height="10" rx="5" fill="#2a2a2e"/>
<rect x="28" y="328" width="280" height="8" rx="4" fill="#2a2a2e"/>
<rect x="28" y="342" width="200" height="8" rx="4" fill="#2a2a2e"/>
<rect x="16" y="386" width="328" height="74" rx="10" fill="#1e1e22"/>
<rect x="28" y="402" width="180" height="10" rx="5" fill="#2a2a2e"/>
<rect x="28" y="418" width="280" height="8" rx="4" fill="#2a2a2e"/>
<rect x="28" y="432" width="220" height="8" rx="4" fill="#2a2a2e"/>

    <!-- footer -->
    <line x1="0" y1="556" x2="360" y2="556" stroke="#303030" stroke-width="1"/>
    <text x="16"  y="578" font-family="DejaVu Sans" font-size="11" font-weight="500" fill="#b3b3b3">Копировать</text>
    <text x="76"  y="578" font-family="DejaVu Sans" font-size="11" font-weight="500" fill="#b3b3b3">.txt</text>
    <text x="120" y="578" font-family="DejaVu Sans" font-size="11" font-weight="500" fill="#b3b3b3">.srt</text>
    <text x="344" y="578" text-anchor="end" font-family="DejaVu Sans" font-size="11" font-weight="500" fill="#b3b3b3">Настройки</text>
  </g>

</svg>